<svg xmlns="http://www.w3.org/2000/svg" viewBox="0 0 64 64" width="64" height="64" role="img" aria-labelledby="title desc">
  <title id="title">Chart Frame Corner Brass Bottom Right</title>
  <desc id="desc">Orchard Vale data visualization ornament: Chart Frame Corner Brass Bottom Right.</desc>
  <g><g transform="translate(64 64) scale(-1 -1)"><path d="M6 58 V22 C6 13 13 6 22 6 H58" fill="none" stroke="#6f4728" stroke-width="6" style="stroke-linecap:round;stroke-linejoin:round;vector-effect:non-scaling-stroke"/><path d="M14 58 V26 C14 19 19 14 26 14 H58" fill="none" stroke="#c9962e" stroke-width="4" style="stroke-linecap:round;stroke-linejoin:round;vector-effect:non-scaling-stroke"/><path d="M10 48 C22 42 28 33 27 20" fill="none" stroke="#2f6b3f" stroke-width="2.5" style="stroke-linecap:round;stroke-linejoin:round;vector-effect:non-scaling-stroke"/><path d="M24,38 C19.05,33.05 14.1,35.8 14.1,40.75 C20.15,42.4 23.45,40.75 24,38 Z" fill="#77a567" stroke="#2f2417" stroke-width="1.8" style="stroke-linecap:round;stroke-linejoin:round;vector-effect:non-scaling-stroke"/><path d="M15.75,40.2 C19.6,39.65 22.35,38.55 24,38" fill="none" stroke="#2f6b3f" stroke-width="1.5" style="stroke-linecap:round;stroke-linejoin:round;vector-effect:non-scaling-stroke"/><path d="M20,28 C15.95,23.95 11.9,26.2 11.9,30.25 C16.85,31.6 19.55,30.25 20,28 Z" fill="#77a567" stroke="#2f2417" stroke-width="1.8" style="stroke-linecap:round;stroke-linejoin:round;vector-effect:non-scaling-stroke"/><path d="M13.25,29.8 C16.4,29.35 18.65,28.45 20,28" fill="none" stroke="#2f6b3f" stroke-width="1.5" style="stroke-linecap:round;stroke-linejoin:round;vector-effect:non-scaling-stroke"/><circle cx="15" cy="15" r="3" fill="#e7c66a" stroke="#2f2417" stroke-width="1.4" style="stroke-linecap:round;stroke-linejoin:round;vector-effect:non-scaling-stroke"/></g></g>
</svg>
