<svg xmlns="http://www.w3.org/2000/svg" viewBox="0 0 320 24" width="320" height="24" role="img" aria-labelledby="title desc">
  <title id="title">Thin Ledger Divider Ornament</title>
  <desc id="desc">Orchard Vale data visualization ornament: Thin Ledger Divider Ornament.</desc>
  <g><line x1="16" y1="12" x2="304" y2="12" stroke="#6f4728" stroke-width="2" style="stroke-linecap:round;stroke-linejoin:round;vector-effect:non-scaling-stroke"/><path d="M132 12 C144 3 176 3 188 12 C176 21 144 21 132 12 Z" fill="#f2e1b8" stroke="#c9962e" stroke-width="2" style="stroke-linecap:round;stroke-linejoin:round;vector-effect:non-scaling-stroke"/><path d="M153,12 C148.95,7.95 144.9,10.2 144.9,14.25 C149.85,15.6 152.55,14.25 153,12 Z" fill="#77a567" stroke="#2f2417" stroke-width="1.8" style="stroke-linecap:round;stroke-linejoin:round;vector-effect:non-scaling-stroke"/><path d="M146.25,13.8 C149.4,13.35 151.65,12.45 153,12" fill="none" stroke="#2f6b3f" stroke-width="1.5" style="stroke-linecap:round;stroke-linejoin:round;vector-effect:non-scaling-stroke"/><g transform="translate(320 0) scale(-1 1)"><path d="M153,12 C148.95,7.95 144.9,10.2 144.9,14.25 C149.85,15.6 152.55,14.25 153,12 Z" fill="#77a567" stroke="#2f2417" stroke-width="1.8" style="stroke-linecap:round;stroke-linejoin:round;vector-effect:non-scaling-stroke"/><path d="M146.25,13.8 C149.4,13.35 151.65,12.45 153,12" fill="none" stroke="#2f6b3f" stroke-width="1.5" style="stroke-linecap:round;stroke-linejoin:round;vector-effect:non-scaling-stroke"/></g></g>
</svg>
