<svg xmlns="http://www.w3.org/2000/svg" width="80" height="192" viewBox="0 0 80 192" fill="none">
  <defs>
    <linearGradient id="brass" x1="0" y1="0" x2="1" y2="1">
      <stop offset="0" stop-color="#f1d178"/>
      <stop offset="0.42" stop-color="#c89531"/>
      <stop offset="0.72" stop-color="#7a4b18"/>
      <stop offset="1" stop-color="#e0b95b"/>
    </linearGradient>
    <linearGradient id="darkWood" x1="0" y1="0" x2="1" y2="1">
      <stop offset="0" stop-color="#5b3515"/>
      <stop offset="0.45" stop-color="#2b190b"/>
      <stop offset="1" stop-color="#100904"/>
    </linearGradient>
    <linearGradient id="leaf" x1="0" y1="0" x2="1" y2="1">
      <stop offset="0" stop-color="#8cad4e"/>
      <stop offset="0.55" stop-color="#3f7629"/>
      <stop offset="1" stop-color="#183b16"/>
    </linearGradient>
    <filter id="inkShadow" x="-20%" y="-20%" width="140%" height="140%">
      <feDropShadow dx="1" dy="1" stdDeviation="0.7" flood-color="#160d05" flood-opacity="0.55"/>
    </filter>
  </defs>
  <g filter="url(#inkShadow)">
    <path d="M40 8 C55 8 65 18 65 34 V50 C65 66 55 76 40 76 C25 76 15 66 15 50 V34 C15 18 25 8 40 8 Z" stroke="url(#brass)" stroke-width="12"/>
    <path d="M40 116 C55 116 65 126 65 142 V158 C65 174 55 184 40 184 C25 184 15 174 15 158 V142 C15 126 25 116 40 116 Z" stroke="url(#brass)" stroke-width="12"/>
    <path d="M40 62 C55 62 65 72 65 88 V104 C65 120 55 130 40 130 C25 130 15 120 15 104 V88 C15 72 25 62 40 62 Z" stroke="#7a4b18" stroke-width="11"/>
    <path d="M40 62 C55 62 65 72 65 88 V104 C65 120 55 130 40 130 C25 130 15 120 15 104 V88 C15 72 25 62 40 62 Z" stroke="#e4bd5e" stroke-width="4" opacity="0.8"/>
  </g>
</svg>
