<svg xmlns="http://www.w3.org/2000/svg" width="128" height="128" viewBox="0 0 128 128" fill="none">
  <defs>
    <linearGradient id="brass" x1="0" y1="0" x2="1" y2="1">
      <stop offset="0" stop-color="#f1d178"/>
      <stop offset="0.42" stop-color="#c89531"/>
      <stop offset="0.72" stop-color="#7a4b18"/>
      <stop offset="1" stop-color="#e0b95b"/>
    </linearGradient>
    <linearGradient id="darkWood" x1="0" y1="0" x2="1" y2="1">
      <stop offset="0" stop-color="#5b3515"/>
      <stop offset="0.45" stop-color="#2b190b"/>
      <stop offset="1" stop-color="#100904"/>
    </linearGradient>
    <linearGradient id="leaf" x1="0" y1="0" x2="1" y2="1">
      <stop offset="0" stop-color="#8cad4e"/>
      <stop offset="0.55" stop-color="#3f7629"/>
      <stop offset="1" stop-color="#183b16"/>
    </linearGradient>
    <filter id="inkShadow" x="-20%" y="-20%" width="140%" height="140%">
      <feDropShadow dx="1" dy="1" stdDeviation="0.7" flood-color="#160d05" flood-opacity="0.55"/>
    </filter>
  </defs>
  <g transform="translate(128 128) scale(-1 -1)">
  <g filter="url(#inkShadow)">
    <path d="M6 121 L6 15 C42 8 82 8 122 11 L122 31 C89 28 58 30 28 37 L28 121 Z" fill="url(#darkWood)" stroke="#090502" stroke-width="3"/>
    <path d="M18 119 L18 28 C49 20 84 19 116 22" stroke="#c18a2c" stroke-width="3" stroke-linecap="round"/>
    <path d="M31 121 L31 42 C57 35 84 34 110 36" stroke="#6d4215" stroke-width="4" stroke-linecap="round"/>
    <path d="M18 55 C45 48 74 47 106 51" stroke="#704019" stroke-width="2" opacity="0.9"/>
    <path d="M18 78 C48 72 75 72 106 76" stroke="#704019" stroke-width="2" opacity="0.75"/>
    <circle cx="31" cy="31" r="5" fill="#d2a348" stroke="#1a0d04" stroke-width="2"/>
    <circle cx="104" cy="29" r="5" fill="#d2a348" stroke="#1a0d04" stroke-width="2"/>
  </g>
  </g>
</svg>
