<svg xmlns="http://www.w3.org/2000/svg" width="128" height="128" viewBox="0 0 128 128" fill="none">
  <defs>
    <linearGradient id="brass" x1="0" y1="0" x2="1" y2="1">
      <stop offset="0" stop-color="#f1d178"/>
      <stop offset="0.42" stop-color="#c89531"/>
      <stop offset="0.72" stop-color="#7a4b18"/>
      <stop offset="1" stop-color="#e0b95b"/>
    </linearGradient>
    <linearGradient id="darkWood" x1="0" y1="0" x2="1" y2="1">
      <stop offset="0" stop-color="#5b3515"/>
      <stop offset="0.45" stop-color="#2b190b"/>
      <stop offset="1" stop-color="#100904"/>
    </linearGradient>
    <linearGradient id="leaf" x1="0" y1="0" x2="1" y2="1">
      <stop offset="0" stop-color="#8cad4e"/>
      <stop offset="0.55" stop-color="#3f7629"/>
      <stop offset="1" stop-color="#183b16"/>
    </linearGradient>
    <filter id="inkShadow" x="-20%" y="-20%" width="140%" height="140%">
      <feDropShadow dx="1" dy="1" stdDeviation="0.7" flood-color="#160d05" flood-opacity="0.55"/>
    </filter>
  </defs>
  <g transform="translate(128 0) scale(-1 1)">
  <g filter="url(#inkShadow)">
    <path d="M8 116 C16 72 39 37 82 9 L121 8 L121 27 C77 29 31 76 28 121 L8 121 Z" fill="url(#brass)" stroke="#2a1708" stroke-width="3"/>
    <path d="M20 104 C30 70 55 42 92 20" stroke="#f7df91" stroke-width="4" stroke-linecap="round" opacity="0.75"/>
    <path d="M17 118 C28 73 66 31 119 18" stroke="#6d4215" stroke-width="5" stroke-linecap="round"/>
    <path d="M32 111 C38 88 52 68 76 52" stroke="#271506" stroke-width="3" stroke-linecap="round"/>
    <circle cx="34" cy="95" r="7" fill="#e1b75a" stroke="#321d0b" stroke-width="3"/>
    <circle cx="96" cy="33" r="7" fill="#e1b75a" stroke="#321d0b" stroke-width="3"/>
    <path d="M59 87 C70 84 78 78 84 68 C87 80 83 89 73 94 C67 97 62 95 59 87 Z" fill="url(#leaf)" stroke="#1a280f" stroke-width="2"/>
    <path d="M72 74 C62 68 55 60 54 48 C66 52 73 60 76 70" fill="url(#leaf)" stroke="#1a280f" stroke-width="2"/>
  </g>
  </g>
</svg>
