<svg xmlns="http://www.w3.org/2000/svg" width="512" height="64" viewBox="0 0 512 64" fill="none">
  <defs>
    <linearGradient id="brass" x1="0" y1="0" x2="1" y2="1">
      <stop offset="0" stop-color="#f1d178"/>
      <stop offset="0.42" stop-color="#c89531"/>
      <stop offset="0.72" stop-color="#7a4b18"/>
      <stop offset="1" stop-color="#e0b95b"/>
    </linearGradient>
    <linearGradient id="darkWood" x1="0" y1="0" x2="1" y2="1">
      <stop offset="0" stop-color="#5b3515"/>
      <stop offset="0.45" stop-color="#2b190b"/>
      <stop offset="1" stop-color="#100904"/>
    </linearGradient>
    <linearGradient id="leaf" x1="0" y1="0" x2="1" y2="1">
      <stop offset="0" stop-color="#8cad4e"/>
      <stop offset="0.55" stop-color="#3f7629"/>
      <stop offset="1" stop-color="#183b16"/>
    </linearGradient>
    <filter id="inkShadow" x="-20%" y="-20%" width="140%" height="140%">
      <feDropShadow dx="1" dy="1" stdDeviation="0.7" flood-color="#160d05" flood-opacity="0.55"/>
    </filter>
  </defs>
  <g filter="url(#inkShadow)">
    <path d="M20 32 C85 18 145 46 212 31 C279 16 343 45 492 28" stroke="#315f22" stroke-width="5" stroke-linecap="round"/>
    <path d="M112 29 C126 18 138 16 151 22 C139 36 126 39 112 29 Z" fill="url(#leaf)" stroke="#142a12" stroke-width="1.5"/>
    <path d="M180 34 C165 45 153 47 140 41 C152 27 165 24 180 34 Z" fill="url(#leaf)" stroke="#142a12" stroke-width="1.5"/>
    <path d="M303 29 C317 18 329 16 342 22 C330 36 317 39 303 29 Z" fill="url(#leaf)" stroke="#142a12" stroke-width="1.5"/>
    <path d="M372 34 C357 45 345 47 332 41 C344 27 357 24 372 34 Z" fill="url(#leaf)" stroke="#142a12" stroke-width="1.5"/>
    <circle cx="248" cy="31" r="5" fill="#d8a338" stroke="#51320f" stroke-width="1.5"/>
  </g>
</svg>
