<svg xmlns="http://www.w3.org/2000/svg" width="512" height="64" viewBox="0 0 512 64" fill="none">
  <defs>
    <linearGradient id="brass" x1="0" y1="0" x2="1" y2="1">
      <stop offset="0" stop-color="#f1d178"/>
      <stop offset="0.42" stop-color="#c89531"/>
      <stop offset="0.72" stop-color="#7a4b18"/>
      <stop offset="1" stop-color="#e0b95b"/>
    </linearGradient>
    <linearGradient id="darkWood" x1="0" y1="0" x2="1" y2="1">
      <stop offset="0" stop-color="#5b3515"/>
      <stop offset="0.45" stop-color="#2b190b"/>
      <stop offset="1" stop-color="#100904"/>
    </linearGradient>
    <linearGradient id="leaf" x1="0" y1="0" x2="1" y2="1">
      <stop offset="0" stop-color="#8cad4e"/>
      <stop offset="0.55" stop-color="#3f7629"/>
      <stop offset="1" stop-color="#183b16"/>
    </linearGradient>
    <filter id="inkShadow" x="-20%" y="-20%" width="140%" height="140%">
      <feDropShadow dx="1" dy="1" stdDeviation="0.7" flood-color="#160d05" flood-opacity="0.55"/>
    </filter>
  </defs>
  <g filter="url(#inkShadow)">
    <path d="M16 32 H496" stroke="#6d4215" stroke-width="4" stroke-linecap="round"/>
    <path d="M64 32 C126 8 184 8 248 32 C312 56 372 56 448 32" stroke="#c89531" stroke-width="3" stroke-linecap="round"/>
    <path d="M256 32 C245 19 245 9 256 0 C267 9 267 19 256 32 Z" fill="url(#brass)" stroke="#2b1708" stroke-width="2"/>
    <path d="M256 32 C245 45 245 55 256 64 C267 55 267 45 256 32 Z" fill="url(#brass)" stroke="#2b1708" stroke-width="2"/>
    <path d="M201 25 C219 17 231 17 244 28 C225 34 214 34 201 25 Z" fill="url(#leaf)" stroke="#142a12" stroke-width="1.5"/>
    <path d="M311 39 C293 47 281 47 268 36 C287 30 298 30 311 39 Z" fill="url(#leaf)" stroke="#142a12" stroke-width="1.5"/>
  </g>
</svg>
