<svg xmlns="http://www.w3.org/2000/svg" width="128" height="128" viewBox="0 0 128 128" fill="none">
  <defs>
    <linearGradient id="brass" x1="0" y1="0" x2="1" y2="1">
      <stop offset="0" stop-color="#f1d178"/>
      <stop offset="0.42" stop-color="#c89531"/>
      <stop offset="0.72" stop-color="#7a4b18"/>
      <stop offset="1" stop-color="#e0b95b"/>
    </linearGradient>
    <linearGradient id="darkWood" x1="0" y1="0" x2="1" y2="1">
      <stop offset="0" stop-color="#5b3515"/>
      <stop offset="0.45" stop-color="#2b190b"/>
      <stop offset="1" stop-color="#100904"/>
    </linearGradient>
    <linearGradient id="leaf" x1="0" y1="0" x2="1" y2="1">
      <stop offset="0" stop-color="#8cad4e"/>
      <stop offset="0.55" stop-color="#3f7629"/>
      <stop offset="1" stop-color="#183b16"/>
    </linearGradient>
    <filter id="inkShadow" x="-20%" y="-20%" width="140%" height="140%">
      <feDropShadow dx="1" dy="1" stdDeviation="0.7" flood-color="#160d05" flood-opacity="0.55"/>
    </filter>
  </defs>
  <g transform="translate(128 0) scale(-1 1)">
  <g filter="url(#inkShadow)">
    <path d="M12 118 C26 84 36 53 36 11" stroke="#315f22" stroke-width="5" stroke-linecap="round"/>
    <path d="M12 118 C45 102 76 91 117 88" stroke="#315f22" stroke-width="5" stroke-linecap="round"/>
    <path d="M35 69 C54 59 60 45 58 30 C39 37 31 51 35 69 Z" fill="url(#leaf)" stroke="#142a12" stroke-width="2"/>
    <path d="M28 91 C47 86 59 75 64 60 C44 60 31 71 28 91 Z" fill="url(#leaf)" stroke="#142a12" stroke-width="2"/>
    <path d="M62 95 C82 87 94 74 98 58 C75 60 63 75 62 95 Z" fill="url(#leaf)" stroke="#142a12" stroke-width="2"/>
    <path d="M83 89 C97 101 111 105 126 101 C116 85 101 81 83 89 Z" fill="url(#leaf)" stroke="#142a12" stroke-width="2"/>
    <circle cx="42" cy="82" r="4" fill="#d8a338" stroke="#51320f" stroke-width="1.5"/>
    <circle cx="78" cy="89" r="4" fill="#d8a338" stroke="#51320f" stroke-width="1.5"/>
  </g>
  </g>
</svg>
