<svg xmlns="http://www.w3.org/2000/svg" width="1024" height="584" viewBox="0 0 1024 584" fill="none">
  <defs>
    <linearGradient id="brass" x1="0" y1="0" x2="1" y2="1">
      <stop offset="0" stop-color="#f1d178"/>
      <stop offset="0.42" stop-color="#c89531"/>
      <stop offset="0.72" stop-color="#7a4b18"/>
      <stop offset="1" stop-color="#e0b95b"/>
    </linearGradient>
    <linearGradient id="darkWood" x1="0" y1="0" x2="1" y2="1">
      <stop offset="0" stop-color="#5b3515"/>
      <stop offset="0.45" stop-color="#2b190b"/>
      <stop offset="1" stop-color="#100904"/>
    </linearGradient>
    <linearGradient id="leaf" x1="0" y1="0" x2="1" y2="1">
      <stop offset="0" stop-color="#8cad4e"/>
      <stop offset="0.55" stop-color="#3f7629"/>
      <stop offset="1" stop-color="#183b16"/>
    </linearGradient>
    <filter id="inkShadow" x="-20%" y="-20%" width="140%" height="140%">
      <feDropShadow dx="1" dy="1" stdDeviation="0.7" flood-color="#160d05" flood-opacity="0.55"/>
    </filter>
  </defs>
  <g filter="url(#inkShadow)">
    <rect x="10" y="10" width="1004" height="564" rx="14" fill="none" stroke="url(#darkWood)" stroke-width="20"/>
    <rect x="28" y="28" width="968" height="528" rx="10" fill="none" stroke="url(#brass)" stroke-width="4"/>
    <path d="M36 36 H988 M36 548 H988 M36 36 V548 M988 36 V548" stroke="#100904" stroke-width="3" opacity="0.7"/>
    <path d="M70 24 C200 42 318 30 450 26 M574 26 C704 42 826 30 954 24" stroke="#704019" stroke-width="3" opacity="0.7"/>
    <path d="M70 560 C200 542 318 554 450 558 M574 558 C704 542 826 554 954 560" stroke="#704019" stroke-width="3" opacity="0.7"/>
  </g>
</svg>
