<svg xmlns="http://www.w3.org/2000/svg" width="640" height="100" viewBox="0 0 640 100" fill="none">
  <defs>
    <linearGradient id="parchment" x1="0" y1="0" x2="0" y2="1">
      <stop offset="0" stop-color="#f8ebcb"/>
      <stop offset="0.58" stop-color="#ecd2a1"/>
      <stop offset="1" stop-color="#d9b879"/>
    </linearGradient>
    <linearGradient id="parchmentHover" x1="0" y1="0" x2="0" y2="1">
      <stop offset="0" stop-color="#fff1cf"/>
      <stop offset="0.58" stop-color="#f1dcae"/>
      <stop offset="1" stop-color="#dfbf7d"/>
    </linearGradient>
    <linearGradient id="brass" x1="0" y1="0" x2="1" y2="1">
      <stop offset="0" stop-color="#f3d67e"/>
      <stop offset="0.42" stop-color="#c89531"/>
      <stop offset="0.72" stop-color="#7a4b18"/>
      <stop offset="1" stop-color="#e0b95b"/>
    </linearGradient>
    <linearGradient id="brassHover" x1="0" y1="0" x2="1" y2="1">
      <stop offset="0" stop-color="#ffe394"/>
      <stop offset="0.45" stop-color="#d5a238"/>
      <stop offset="0.8" stop-color="#8b551b"/>
      <stop offset="1" stop-color="#f0ca68"/>
    </linearGradient>
    <linearGradient id="green" x1="0" y1="0" x2="0" y2="1">
      <stop offset="0" stop-color="#2f6b25"/>
      <stop offset="0.62" stop-color="#204f1d"/>
      <stop offset="1" stop-color="#102812"/>
    </linearGradient>
    <linearGradient id="red" x1="0" y1="0" x2="0" y2="1">
      <stop offset="0" stop-color="#c64a34"/>
      <stop offset="1" stop-color="#8b1e1a"/>
    </linearGradient>
    <linearGradient id="amber" x1="0" y1="0" x2="0" y2="1">
      <stop offset="0" stop-color="#e9bd57"/>
      <stop offset="1" stop-color="#a8661b"/>
    </linearGradient>
    <linearGradient id="blue" x1="0" y1="0" x2="0" y2="1">
      <stop offset="0" stop-color="#4e8ec7"/>
      <stop offset="1" stop-color="#245f99"/>
    </linearGradient>
    <linearGradient id="purple" x1="0" y1="0" x2="0" y2="1">
      <stop offset="0" stop-color="#9a6ec0"/>
      <stop offset="1" stop-color="#674091"/>
    </linearGradient>
    <filter id="shadow" x="-10%" y="-20%" width="120%" height="150%">
      <feDropShadow dx="1" dy="2" stdDeviation="1" flood-color="#160d05" flood-opacity="0.45"/>
    </filter>
  </defs>
  <g filter="url(#shadow)">
    <path d="M56 13 H584 C611 13 627 27 617 45 C634 61 624 86 589 87 H51 C16 86 6 61 23 45 C13 27 29 13 56 13 Z" fill="url(#parchment)" stroke="#2b1a0b" stroke-width="3"/>
    <path d="M65 24 H575 C594 24 602 34 592 45 C604 58 597 75 575 76 H65 C43 75 36 58 48 45 C38 34 46 24 65 24 Z" stroke="#c89531" stroke-width="2"/>
    <path d="M54 35 C37 37 31 48 41 59" stroke="#8b6530" stroke-width="3" stroke-linecap="round"/>
    <path d="M586 35 C603 37 609 48 599 59" stroke="#8b6530" stroke-width="3" stroke-linecap="round"/>
    <path d="M100 30 H540" stroke="#fff1cf" stroke-width="2" opacity="0.45"/>
  </g>
</svg>
