<svg xmlns="http://www.w3.org/2000/svg" width="32" height="32" viewBox="0 0 32 32" fill="none">
  <path d="M8 3h12l5 5v21H8V3Z" fill="#f8edcf" stroke="#2f2417" stroke-width="2"/>
  <path d="M20 3v6h5" fill="#e3c487" stroke="#2f2417" stroke-width="2"/>
  <rect x="5" y="15" width="20" height="10" fill="#a94436" stroke="#2f2417" stroke-width="2"/>
  <path d="M9 22v-5h3c1.2 0 2 .8 2 1.9s-.8 1.9-2 1.9h-1.3V22H9Zm1.7-2.7h1.1c.4 0 .7-.2.7-.5s-.3-.5-.7-.5h-1.1v1Z" fill="#f8edcf"/>
  <path d="M15.2 22v-5h2c1.6 0 2.7 1 2.7 2.5S18.8 22 17.2 22h-2Zm1.6-1.4h.4c.7 0 1.1-.4 1.1-1.1s-.4-1.1-1.1-1.1h-.4v2.2Z" fill="#f8edcf"/>
  <path d="M21 22v-5h4v1.4h-2.4v.7h2v1.3h-2V22H21Z" fill="#f8edcf"/>
</svg>
