<svg xmlns="http://www.w3.org/2000/svg" width="32" height="32" viewBox="0 0 32 32" fill="none">
  <path d="M8 3h12l5 5v21H8V3Z" fill="#f8edcf" stroke="#2f2417" stroke-width="2"/>
  <path d="M20 3v6h5" fill="#e3c487" stroke="#2f2417" stroke-width="2"/>
  <rect x="5" y="15" width="22" height="10" fill="#49759a" stroke="#2f2417" stroke-width="2"/>
  <path d="M8.5 22v-5h2c1.6 0 2.7 1 2.7 2.5S12.1 22 10.5 22h-2Zm1.5-1.4h.4c.7 0 1.1-.4 1.1-1.1s-.4-1.1-1.1-1.1H10v2.2Z" fill="#f8edcf"/>
  <path d="M14 19.5c0-1.5 1.1-2.6 2.7-2.6s2.7 1.1 2.7 2.6-1.1 2.6-2.7 2.6-2.7-1.1-2.7-2.6Zm1.6 0c0 .7.4 1.2 1.1 1.2s1.1-.5 1.1-1.2-.4-1.2-1.1-1.2-1.1.5-1.1 1.2Z" fill="#f8edcf"/>
  <path d="M20.2 19.5c0-1.5 1.1-2.6 2.7-2.6.9 0 1.6.3 2.1.9l-1 1c-.3-.3-.6-.4-1-.4-.7 0-1.1.5-1.1 1.2s.4 1.2 1.1 1.2c.4 0 .7-.1 1-.4l1 1c-.5.6-1.2.9-2.1.9-1.6-.2-2.7-1.3-2.7-2.8Z" fill="#f8edcf"/>
</svg>
